<svg xmlns="http://www.w3.org/2000/svg" xmlns:xlink="http://www.w3.org/1999/xlink" width="235" zoomAndPan="magnify" viewBox="0 0 176.25 171.000002" height="228" preserveAspectRatio="xMidYMid meet" version="1.0"><defs><clipPath id="f037769b1e"><path d="M 0.140625 0 L 175.363281 0 L 175.363281 170.003906 L 0.140625 170.003906 Z M 0.140625 0 " clip-rule="nonzero"/></clipPath><clipPath id="f4d5d48651"><path d="M 0.140625 0 L 175.363281 0 L 175.363281 170 L 0.140625 170 Z M 0.140625 0 " clip-rule="nonzero"/></clipPath><clipPath id="3fab933a4c"><path d="M 0.140625 0 L 175 0 L 175 169.429688 L 0.140625 169.429688 Z M 0.140625 0 " clip-rule="nonzero"/></clipPath><clipPath id="67792d522a"><path d="M 38.167969 0 L 136.847656 0 C 146.933594 0 156.605469 4.007812 163.734375 11.136719 C 170.867188 18.269531 174.875 27.941406 174.875 38.027344 L 174.875 131.402344 C 174.875 141.488281 170.867188 151.160156 163.734375 158.292969 C 156.605469 165.425781 146.933594 169.429688 136.847656 169.429688 L 38.167969 169.429688 C 28.082031 169.429688 18.410156 165.425781 11.277344 158.292969 C 4.144531 151.160156 0.140625 141.488281 0.140625 131.402344 L 0.140625 38.027344 C 0.140625 27.941406 4.144531 18.269531 11.277344 11.136719 C 18.410156 4.007812 28.082031 0 38.167969 0 Z M 38.167969 0 " clip-rule="nonzero"/></clipPath><clipPath id="34014e3886"><path d="M 0.140625 0 L 175 0 L 175 169.429688 L 0.140625 169.429688 Z M 0.140625 0 " clip-rule="nonzero"/></clipPath><clipPath id="8c7510e48c"><path d="M 38.167969 0 L 136.847656 0 C 146.933594 0 156.605469 4.007812 163.734375 11.136719 C 170.867188 18.269531 174.875 27.941406 174.875 38.027344 L 174.875 131.402344 C 174.875 141.488281 170.867188 151.160156 163.734375 158.292969 C 156.605469 165.425781 146.933594 169.429688 136.847656 169.429688 L 38.167969 169.429688 C 28.082031 169.429688 18.410156 165.425781 11.277344 158.292969 C 4.144531 151.160156 0.140625 141.488281 0.140625 131.402344 L 0.140625 38.027344 C 0.140625 27.941406 4.144531 18.269531 11.277344 11.136719 C 18.410156 4.007812 28.082031 0 38.167969 0 Z M 38.167969 0 " clip-rule="nonzero"/></clipPath><clipPath id="c660a54350"><rect x="0" width="175" y="0" height="170"/></clipPath><clipPath id="9eadd0e7c1"><path d="M 6.25 8.699219 L 168.929688 8.699219 L 168.929688 158.503906 L 6.25 158.503906 Z M 6.25 8.699219 " clip-rule="nonzero"/></clipPath><clipPath id="978502a8c8"><path d="M 87.507812 8.699219 C 42.628906 8.699219 6.25 42.234375 6.25 83.601562 C 6.25 124.96875 42.628906 158.503906 87.507812 158.503906 C 132.382812 158.503906 168.765625 124.96875 168.765625 83.601562 C 168.765625 42.234375 132.382812 8.699219 87.507812 8.699219 Z M 87.507812 8.699219 " clip-rule="nonzero"/></clipPath><clipPath id="101d50085e"><path d="M 0.25 0.699219 L 162.832031 0.699219 L 162.832031 150.503906 L 0.25 150.503906 Z M 0.25 0.699219 " clip-rule="nonzero"/></clipPath><clipPath id="81b88dab06"><path d="M 81.507812 0.699219 C 36.628906 0.699219 0.25 34.234375 0.25 75.601562 C 0.25 116.96875 36.628906 150.503906 81.507812 150.503906 C 126.382812 150.503906 162.765625 116.96875 162.765625 75.601562 C 162.765625 34.234375 126.382812 0.699219 81.507812 0.699219 Z M 81.507812 0.699219 " clip-rule="nonzero"/></clipPath><clipPath id="21919000a5"><rect x="0" width="163" y="0" height="151"/></clipPath><clipPath id="6b10d68198"><path d="M 24.75 59.816406 L 109.679688 59.816406 L 109.679688 123.203125 L 24.75 123.203125 Z M 24.75 59.816406 " clip-rule="nonzero"/></clipPath><clipPath id="528e8f51f3"><path d="M 67.207031 59.816406 C 43.757812 59.816406 24.75 74.003906 24.75 91.511719 C 24.75 109.015625 43.757812 123.203125 67.207031 123.203125 C 90.65625 123.203125 109.667969 109.015625 109.667969 91.511719 C 109.667969 74.003906 90.65625 59.816406 67.207031 59.816406 Z M 67.207031 59.816406 " clip-rule="nonzero"/></clipPath><clipPath id="34d92ac2f9"><path d="M 0.75 0.816406 L 85.679688 0.816406 L 85.679688 64.203125 L 0.75 64.203125 Z M 0.75 0.816406 " clip-rule="nonzero"/></clipPath><clipPath id="e5b4c6b041"><path d="M 43.207031 0.816406 C 19.757812 0.816406 0.75 15.003906 0.75 32.511719 C 0.75 50.015625 19.757812 64.203125 43.207031 64.203125 C 66.65625 64.203125 85.667969 50.015625 85.667969 32.511719 C 85.667969 15.003906 66.65625 0.816406 43.207031 0.816406 Z M 43.207031 0.816406 " clip-rule="nonzero"/></clipPath><clipPath id="52c8f0dc71"><rect x="0" width="86" y="0" height="65"/></clipPath><clipPath id="b093dd0686"><path d="M 22.941406 83.761719 L 96.414062 83.761719 L 96.414062 123.78125 L 22.941406 123.78125 Z M 22.941406 83.761719 " clip-rule="nonzero"/></clipPath><clipPath id="b34583d056"><path d="M 59.621094 83.761719 C 39.363281 83.761719 22.941406 92.722656 22.941406 103.773438 C 22.941406 114.824219 39.363281 123.78125 59.621094 123.78125 C 79.878906 123.78125 96.296875 114.824219 96.296875 103.773438 C 96.296875 92.722656 79.878906 83.761719 59.621094 83.761719 Z M 59.621094 83.761719 " clip-rule="nonzero"/></clipPath><clipPath id="faf831b9c6"><path d="M 0.941406 0.761719 L 74.414062 0.761719 L 74.414062 40.78125 L 0.941406 40.78125 Z M 0.941406 0.761719 " clip-rule="nonzero"/></clipPath><clipPath id="4a52693e3f"><path d="M 37.621094 0.761719 C 17.363281 0.761719 0.941406 9.722656 0.941406 20.773438 C 0.941406 31.824219 17.363281 40.78125 37.621094 40.78125 C 57.878906 40.78125 74.296875 31.824219 74.296875 20.773438 C 74.296875 9.722656 57.878906 0.761719 37.621094 0.761719 Z M 37.621094 0.761719 " clip-rule="nonzero"/></clipPath><clipPath id="2aa1f67776"><rect x="0" width="75" y="0" height="41"/></clipPath><clipPath id="a21e0743ef"><path d="M 39.871094 88.28125 L 115.726562 88.28125 L 115.726562 96.96875 L 39.871094 96.96875 Z M 39.871094 88.28125 " clip-rule="nonzero"/></clipPath><clipPath id="902bfd55e6"><path d="M 77.792969 88.28125 C 56.851562 88.28125 39.871094 90.226562 39.871094 92.625 C 39.871094 95.023438 56.851562 96.96875 77.792969 96.96875 C 98.738281 96.96875 115.714844 95.023438 115.714844 92.625 C 115.714844 90.226562 98.738281 88.28125 77.792969 88.28125 Z M 77.792969 88.28125 " clip-rule="nonzero"/></clipPath><clipPath id="697577043d"><path d="M 0.871094 0.28125 L 76.726562 0.28125 L 76.726562 8.96875 L 0.871094 8.96875 Z M 0.871094 0.28125 " clip-rule="nonzero"/></clipPath><clipPath id="621457af5e"><path d="M 38.792969 0.28125 C 17.851562 0.28125 0.871094 2.226562 0.871094 4.625 C 0.871094 7.023438 17.851562 8.96875 38.792969 8.96875 C 59.738281 8.96875 76.714844 7.023438 76.714844 4.625 C 76.714844 2.226562 59.738281 0.28125 38.792969 0.28125 Z M 38.792969 0.28125 " clip-rule="nonzero"/></clipPath><clipPath id="c82438b478"><rect x="0" width="77" y="0" height="9"/></clipPath><clipPath id="cb8f12b83f"><path d="M 66.636719 99.179688 L 125.960938 99.179688 L 125.960938 158.503906 L 66.636719 158.503906 Z M 66.636719 99.179688 " clip-rule="nonzero"/></clipPath><clipPath id="d6424dca08"><path d="M 96.296875 99.179688 C 79.917969 99.179688 66.636719 112.460938 66.636719 128.839844 C 66.636719 145.222656 79.917969 158.503906 96.296875 158.503906 C 112.679688 158.503906 125.960938 145.222656 125.960938 128.839844 C 125.960938 112.460938 112.679688 99.179688 96.296875 99.179688 Z M 96.296875 99.179688 " clip-rule="nonzero"/></clipPath><clipPath id="257a4f019b"><path d="M 0.636719 0.179688 L 59.960938 0.179688 L 59.960938 59.503906 L 0.636719 59.503906 Z M 0.636719 0.179688 " clip-rule="nonzero"/></clipPath><clipPath id="c78e0c3e3e"><path d="M 30.296875 0.179688 C 13.917969 0.179688 0.636719 13.460938 0.636719 29.839844 C 0.636719 46.222656 13.917969 59.503906 30.296875 59.503906 C 46.679688 59.503906 59.960938 46.222656 59.960938 29.839844 C 59.960938 13.460938 46.679688 0.179688 30.296875 0.179688 Z M 30.296875 0.179688 " clip-rule="nonzero"/></clipPath><clipPath id="635df91f54"><rect x="0" width="60" y="0" height="60"/></clipPath><clipPath id="d9d74ab00e"><path d="M 81.761719 81.988281 L 102.050781 81.988281 L 102.050781 137.386719 L 81.761719 137.386719 Z M 81.761719 81.988281 " clip-rule="nonzero"/></clipPath><clipPath id="cefb82fab5"><path d="M 81.761719 127.242188 L 81.761719 92.140625 C 81.761719 86.539062 86.300781 81.996094 91.90625 81.996094 C 97.507812 81.996094 102.050781 86.539062 102.050781 92.140625 L 102.050781 127.242188 C 102.050781 132.847656 97.507812 137.386719 91.90625 137.386719 C 86.300781 137.386719 81.761719 132.847656 81.761719 127.242188 Z M 81.761719 127.242188 " clip-rule="nonzero"/></clipPath><clipPath id="4e7bf7ae33"><path d="M 0.761719 0.988281 L 21.050781 0.988281 L 21.050781 56.386719 L 0.761719 56.386719 Z M 0.761719 0.988281 " clip-rule="nonzero"/></clipPath><clipPath id="d88b9a9a68"><path d="M 0.761719 46.242188 L 0.761719 11.140625 C 0.761719 5.539062 5.300781 0.996094 10.90625 0.996094 C 16.507812 0.996094 21.050781 5.539062 21.050781 11.140625 L 21.050781 46.242188 C 21.050781 51.847656 16.507812 56.386719 10.90625 56.386719 C 5.300781 56.386719 0.761719 51.847656 0.761719 46.242188 Z M 0.761719 46.242188 " clip-rule="nonzero"/></clipPath><clipPath id="508183b0ac"><rect x="0" width="22" y="0" height="57"/></clipPath><clipPath id="59d365ccfd"><path d="M 59.621094 44.550781 L 123.007812 44.550781 L 123.007812 107.9375 L 59.621094 107.9375 Z M 59.621094 44.550781 " clip-rule="nonzero"/></clipPath><clipPath id="e9875bc3ad"><path d="M 91.316406 44.550781 C 73.8125 44.550781 59.621094 58.738281 59.621094 76.246094 C 59.621094 93.75 73.8125 107.9375 91.316406 107.9375 C 108.820312 107.9375 123.007812 93.75 123.007812 76.246094 C 123.007812 58.738281 108.820312 44.550781 91.316406 44.550781 Z M 91.316406 44.550781 " clip-rule="nonzero"/></clipPath><clipPath id="dfbeb3b63a"><path d="M 0.621094 0.550781 L 64.007812 0.550781 L 64.007812 63.9375 L 0.621094 63.9375 Z M 0.621094 0.550781 " clip-rule="nonzero"/></clipPath><clipPath id="ad414d6eee"><path d="M 32.316406 0.550781 C 14.8125 0.550781 0.621094 14.738281 0.621094 32.246094 C 0.621094 49.75 14.8125 63.9375 32.316406 63.9375 C 49.820312 63.9375 64.007812 49.75 64.007812 32.246094 C 64.007812 14.738281 49.820312 0.550781 32.316406 0.550781 Z M 32.316406 0.550781 " clip-rule="nonzero"/></clipPath><clipPath id="62cfb7f275"><rect x="0" width="65" y="0" height="64"/></clipPath><clipPath id="b2f2a6a2de"><path d="M 67.746094 52.042969 L 114.882812 52.042969 L 114.882812 99.179688 L 67.746094 99.179688 Z M 67.746094 52.042969 " clip-rule="nonzero"/></clipPath><clipPath id="4ea77639db"><path d="M 91.316406 52.042969 C 78.300781 52.042969 67.746094 62.597656 67.746094 75.613281 C 67.746094 88.628906 78.300781 99.179688 91.316406 99.179688 C 104.332031 99.179688 114.882812 88.628906 114.882812 75.613281 C 114.882812 62.597656 104.332031 52.042969 91.316406 52.042969 Z M 91.316406 52.042969 " clip-rule="nonzero"/></clipPath><clipPath id="cd5c761e74"><path d="M 0.746094 0.0429688 L 47.882812 0.0429688 L 47.882812 47.179688 L 0.746094 47.179688 Z M 0.746094 0.0429688 " clip-rule="nonzero"/></clipPath><clipPath id="9b88fe80e8"><path d="M 24.316406 0.0429688 C 11.300781 0.0429688 0.746094 10.597656 0.746094 23.613281 C 0.746094 36.628906 11.300781 47.179688 24.316406 47.179688 C 37.332031 47.179688 47.882812 36.628906 47.882812 23.613281 C 47.882812 10.597656 37.332031 0.0429688 24.316406 0.0429688 Z M 24.316406 0.0429688 " clip-rule="nonzero"/></clipPath><clipPath id="fd03b39c65"><rect x="0" width="48" y="0" height="48"/></clipPath><clipPath id="7b6a347d73"><path d="M 74.441406 58.433594 L 108.191406 58.433594 L 108.191406 92.183594 L 74.441406 92.183594 Z M 74.441406 58.433594 " clip-rule="nonzero"/></clipPath><clipPath id="5b0649e36e"><path d="M 91.316406 58.433594 C 81.996094 58.433594 74.441406 65.988281 74.441406 75.308594 C 74.441406 84.628906 81.996094 92.183594 91.316406 92.183594 C 100.636719 92.183594 108.191406 84.628906 108.191406 75.308594 C 108.191406 65.988281 100.636719 58.433594 91.316406 58.433594 Z M 91.316406 58.433594 " clip-rule="nonzero"/></clipPath><clipPath id="7eb4e90c36"><path d="M 0.441406 0.433594 L 34.191406 0.433594 L 34.191406 34.183594 L 0.441406 34.183594 Z M 0.441406 0.433594 " clip-rule="nonzero"/></clipPath><clipPath id="a4226a57f9"><path d="M 17.316406 0.433594 C 7.996094 0.433594 0.441406 7.988281 0.441406 17.308594 C 0.441406 26.628906 7.996094 34.183594 17.316406 34.183594 C 26.636719 34.183594 34.191406 26.628906 34.191406 17.308594 C 34.191406 7.988281 26.636719 0.433594 17.316406 0.433594 Z M 17.316406 0.433594 " clip-rule="nonzero"/></clipPath><clipPath id="553ed8e131"><rect x="0" width="35" y="0" height="35"/></clipPath><clipPath id="a55ab8105c"><path d="M 81.761719 65.609375 L 100.871094 65.609375 L 100.871094 84.714844 L 81.761719 84.714844 Z M 81.761719 65.609375 " clip-rule="nonzero"/></clipPath><clipPath id="e72058aa94"><path d="M 91.316406 65.609375 C 86.039062 65.609375 81.761719 69.886719 81.761719 75.160156 C 81.761719 80.4375 86.039062 84.714844 91.316406 84.714844 C 96.589844 84.714844 100.871094 80.4375 100.871094 75.160156 C 100.871094 69.886719 96.589844 65.609375 91.316406 65.609375 Z M 91.316406 65.609375 " clip-rule="nonzero"/></clipPath><clipPath id="8a34069044"><path d="M 0.761719 0.609375 L 19.871094 0.609375 L 19.871094 19.714844 L 0.761719 19.714844 Z M 0.761719 0.609375 " clip-rule="nonzero"/></clipPath><clipPath id="8bd1fc4555"><path d="M 10.316406 0.609375 C 5.039062 0.609375 0.761719 4.886719 0.761719 10.160156 C 0.761719 15.4375 5.039062 19.714844 10.316406 19.714844 C 15.589844 19.714844 19.871094 15.4375 19.871094 10.160156 C 19.871094 4.886719 15.589844 0.609375 10.316406 0.609375 Z M 10.316406 0.609375 " clip-rule="nonzero"/></clipPath><clipPath id="5366df99ae"><rect x="0" width="20" y="0" height="20"/></clipPath><clipPath id="06d49774c3"><path d="M 78 40 L 126 40 L 126 52 L 78 52 Z M 78 40 " clip-rule="nonzero"/></clipPath><clipPath id="5f2742d0d1"><path d="M 77.792969 43.535156 L 124.898438 38.679688 L 125.890625 48.320312 L 78.789062 53.175781 Z M 77.792969 43.535156 " clip-rule="nonzero"/></clipPath><clipPath id="8546bd5a91"><path d="M 101.339844 41.109375 C 88.335938 42.449219 78.015625 45.691406 78.289062 48.355469 C 78.566406 51.015625 89.328125 52.089844 102.332031 50.746094 C 115.335938 49.40625 125.652344 46.164062 125.378906 43.503906 C 125.105469 40.839844 114.339844 39.769531 101.339844 41.109375 Z M 101.339844 41.109375 " clip-rule="nonzero"/></clipPath><clipPath id="f42929b742"><path d="M 0 0 L 47.882812 0 L 47.882812 12 L 0 12 Z M 0 0 " clip-rule="nonzero"/></clipPath><clipPath id="f3118de807"><path d="M -0.207031 3.535156 L 46.898438 -1.320312 L 47.890625 8.320312 L 0.789062 13.175781 Z M -0.207031 3.535156 " clip-rule="nonzero"/></clipPath><clipPath id="0a7aa90510"><path d="M 23.339844 1.109375 C 10.335938 2.449219 0.015625 5.691406 0.289062 8.355469 C 0.566406 11.015625 11.328125 12.089844 24.332031 10.746094 C 37.335938 9.40625 47.652344 6.164062 47.378906 3.503906 C 47.105469 0.839844 36.339844 -0.230469 23.339844 1.109375 Z M 23.339844 1.109375 " clip-rule="nonzero"/></clipPath><clipPath id="d083f19ad1"><rect x="0" width="48" y="0" height="12"/></clipPath><clipPath id="3dd549be09"><rect x="0" width="176" y="0" height="170"/></clipPath></defs><g clip-path="url(#f037769b1e)"><path fill="#ffffff" d="M 0.140625 0 L 175.363281 0 L 175.363281 170.003906 L 0.140625 170.003906 Z M 0.140625 0 " fill-opacity="1" fill-rule="nonzero"/></g><g clip-path="url(#f4d5d48651)"><g transform="matrix(1, 0, 0, 1, 0, 0.000000000000020411)"><g clip-path="url(#3dd549be09)"><g clip-path="url(#3fab933a4c)"><g clip-path="url(#67792d522a)"><g transform="matrix(1, 0, 0, 1, 0, 0.000000000000020411)"><g clip-path="url(#c660a54350)"><g clip-path="url(#34014e3886)"><g clip-path="url(#8c7510e48c)"><path fill="#057dc0" d="M 0.140625 0 L 174.867188 0 L 174.867188 169.429688 L 0.140625 169.429688 Z M 0.140625 0 " fill-opacity="1" fill-rule="nonzero"/></g></g></g></g></g></g><g clip-path="url(#9eadd0e7c1)"><g clip-path="url(#978502a8c8)"><g transform="matrix(1, 0, 0, 1, 6, 8)"><g clip-path="url(#21919000a5)"><g clip-path="url(#101d50085e)"><g clip-path="url(#81b88dab06)"><path fill="#057dc0" d="M 0.25 0.699219 L 162.929688 0.699219 L 162.929688 150.503906 L 0.25 150.503906 Z M 0.25 0.699219 " fill-opacity="1" fill-rule="nonzero"/></g></g></g></g></g></g><g clip-path="url(#6b10d68198)"><g clip-path="url(#528e8f51f3)"><g transform="matrix(1, 0, 0, 1, 24, 59)"><g clip-path="url(#52c8f0dc71)"><g clip-path="url(#34d92ac2f9)"><g clip-path="url(#e5b4c6b041)"><path fill="#fee917" d="M 0.75 0.816406 L 85.679688 0.816406 L 85.679688 64.203125 L 0.75 64.203125 Z M 0.75 0.816406 " fill-opacity="1" fill-rule="nonzero"/></g></g></g></g></g></g><g clip-path="url(#b093dd0686)"><g clip-path="url(#b34583d056)"><g transform="matrix(1, 0, 0, 1, 22, 83)"><g clip-path="url(#2aa1f67776)"><g clip-path="url(#faf831b9c6)"><g clip-path="url(#4a52693e3f)"><path fill="#057dc0" d="M 0.941406 0.761719 L 74.257812 0.761719 L 74.257812 40.78125 L 0.941406 40.78125 Z M 0.941406 0.761719 " fill-opacity="1" fill-rule="nonzero"/></g></g></g></g></g></g><g clip-path="url(#a21e0743ef)"><g clip-path="url(#902bfd55e6)"><g transform="matrix(1, 0, 0, 1, 39, 88)"><g clip-path="url(#c82438b478)"><g clip-path="url(#697577043d)"><g clip-path="url(#621457af5e)"><path fill="#fee917" d="M 0.871094 0.28125 L 76.726562 0.28125 L 76.726562 8.96875 L 0.871094 8.96875 Z M 0.871094 0.28125 " fill-opacity="1" fill-rule="nonzero"/></g></g></g></g></g></g><g clip-path="url(#cb8f12b83f)"><g clip-path="url(#d6424dca08)"><g transform="matrix(1, 0, 0, 1, 66, 99)"><g clip-path="url(#635df91f54)"><g clip-path="url(#257a4f019b)"><g clip-path="url(#c78e0c3e3e)"><path fill="#057dc0" d="M 0.636719 0.179688 L 59.960938 0.179688 L 59.960938 59.503906 L 0.636719 59.503906 Z M 0.636719 0.179688 " fill-opacity="1" fill-rule="nonzero"/></g></g></g></g></g></g><g clip-path="url(#d9d74ab00e)"><g clip-path="url(#cefb82fab5)"><g transform="matrix(1, 0, 0, 1, 81, 81)"><g clip-path="url(#508183b0ac)"><g clip-path="url(#4e7bf7ae33)"><g clip-path="url(#d88b9a9a68)"><path fill="#ffffff" d="M 0.761719 56.386719 L 0.761719 0.988281 L 21.050781 0.988281 L 21.050781 56.386719 Z M 0.761719 56.386719 " fill-opacity="1" fill-rule="nonzero"/></g></g></g></g></g></g><g clip-path="url(#59d365ccfd)"><g clip-path="url(#e9875bc3ad)"><g transform="matrix(1, 0, 0, 1, 59, 44)"><g clip-path="url(#62cfb7f275)"><g clip-path="url(#dfbeb3b63a)"><g clip-path="url(#ad414d6eee)"><path fill="#ffffff" d="M 0.621094 0.550781 L 64.007812 0.550781 L 64.007812 63.9375 L 0.621094 63.9375 Z M 0.621094 0.550781 " fill-opacity="1" fill-rule="nonzero"/></g></g></g></g></g></g><g clip-path="url(#b2f2a6a2de)"><g clip-path="url(#4ea77639db)"><g transform="matrix(1, 0, 0, 1, 67, 52)"><g clip-path="url(#fd03b39c65)"><g clip-path="url(#cd5c761e74)"><g clip-path="url(#9b88fe80e8)"><path fill="#057dc0" d="M 0.746094 0.0429688 L 47.882812 0.0429688 L 47.882812 47.179688 L 0.746094 47.179688 Z M 0.746094 0.0429688 " fill-opacity="1" fill-rule="nonzero"/></g></g></g></g></g></g><g clip-path="url(#7b6a347d73)"><g clip-path="url(#5b0649e36e)"><g transform="matrix(1, 0, 0, 1, 74, 58)"><g clip-path="url(#553ed8e131)"><g clip-path="url(#7eb4e90c36)"><g clip-path="url(#a4226a57f9)"><path fill="#ffffff" d="M 0.441406 0.433594 L 34.191406 0.433594 L 34.191406 34.183594 L 0.441406 34.183594 Z M 0.441406 0.433594 " fill-opacity="1" fill-rule="nonzero"/></g></g></g></g></g></g><g clip-path="url(#a55ab8105c)"><g clip-path="url(#e72058aa94)"><g transform="matrix(1, 0, 0, 1, 81, 65)"><g clip-path="url(#5366df99ae)"><g clip-path="url(#8a34069044)"><g clip-path="url(#8bd1fc4555)"><path fill="#057dc0" d="M 0.761719 0.609375 L 19.871094 0.609375 L 19.871094 19.714844 L 0.761719 19.714844 Z M 0.761719 0.609375 " fill-opacity="1" fill-rule="nonzero"/></g></g></g></g></g></g><g clip-path="url(#06d49774c3)"><g clip-path="url(#5f2742d0d1)"><g clip-path="url(#8546bd5a91)"><g transform="matrix(1, 0, 0, 1, 78, 40)"><g clip-path="url(#d083f19ad1)"><g clip-path="url(#f42929b742)"><g clip-path="url(#f3118de807)"><g clip-path="url(#0a7aa90510)"><path fill="#ffffff" d="M -0.207031 3.535156 L 46.898438 -1.320312 L 47.890625 8.320312 L 0.789062 13.175781 Z M -0.207031 3.535156 " fill-opacity="1" fill-rule="nonzero"/></g></g></g></g></g></g></g></g></g></g></g></svg>