<svg xmlns="http://www.w3.org/2000/svg" xmlns:xlink="http://www.w3.org/1999/xlink" width="142" zoomAndPan="magnify" viewBox="0 0 106.5 153.749995" height="205" preserveAspectRatio="xMidYMid meet" version="1.0"><defs><clipPath id="36afb01761"><path d="M 37.503906 98.152344 L 68.28125 98.152344 L 68.28125 152.613281 L 37.503906 152.613281 Z M 37.503906 98.152344 " clip-rule="nonzero"/></clipPath><clipPath id="769550047b"><path d="M 37.503906 137.226562 L 37.503906 113.65625 C 37.503906 105.15625 44.394531 98.265625 52.890625 98.265625 C 61.390625 98.265625 68.28125 105.15625 68.28125 113.65625 L 68.28125 137.226562 C 68.28125 145.722656 61.390625 152.613281 52.890625 152.613281 C 44.394531 152.613281 37.503906 145.722656 37.503906 137.226562 Z M 37.503906 137.226562 " clip-rule="nonzero"/></clipPath><clipPath id="c851a66556"><path d="M 0.503906 0.175781 L 31.28125 0.175781 L 31.28125 54.613281 L 0.503906 54.613281 Z M 0.503906 0.175781 " clip-rule="nonzero"/></clipPath><clipPath id="f7a55138ca"><path d="M 0.503906 39.226562 L 0.503906 15.65625 C 0.503906 7.15625 7.394531 0.265625 15.890625 0.265625 C 24.390625 0.265625 31.28125 7.15625 31.28125 15.65625 L 31.28125 39.226562 C 31.28125 47.722656 24.390625 54.613281 15.890625 54.613281 C 7.394531 54.613281 0.503906 47.722656 0.503906 39.226562 Z M 0.503906 39.226562 " clip-rule="nonzero"/></clipPath><clipPath id="5f04b0e630"><rect x="0" width="32" y="0" height="55"/></clipPath><clipPath id="d7efaeee1f"><path d="M 0 0.234375 L 105.769531 0.234375 L 105.769531 106.003906 L 0 106.003906 Z M 0 0.234375 " clip-rule="nonzero"/></clipPath><clipPath id="d22953def2"><path d="M 52.882812 0.234375 C 23.675781 0.234375 0 23.910156 0 53.121094 C 0 82.328125 23.675781 106.003906 52.882812 106.003906 C 82.09375 106.003906 105.769531 82.328125 105.769531 53.121094 C 105.769531 23.910156 82.09375 0.234375 52.882812 0.234375 Z M 52.882812 0.234375 " clip-rule="nonzero"/></clipPath><clipPath id="3db87d077e"><path d="M 24.589844 24.824219 L 81.191406 24.824219 L 81.191406 81.425781 L 24.589844 81.425781 Z M 24.589844 24.824219 " clip-rule="nonzero"/></clipPath><clipPath id="d32fb9ec52"><path d="M 52.890625 24.824219 C 37.257812 24.824219 24.589844 37.492188 24.589844 53.125 C 24.589844 68.753906 37.257812 81.425781 52.890625 81.425781 C 68.519531 81.425781 81.191406 68.753906 81.191406 53.125 C 81.191406 37.492188 68.519531 24.824219 52.890625 24.824219 Z M 52.890625 24.824219 " clip-rule="nonzero"/></clipPath><clipPath id="6ed5dfa972"><path d="M 0.589844 0.824219 L 57.191406 0.824219 L 57.191406 57.425781 L 0.589844 57.425781 Z M 0.589844 0.824219 " clip-rule="nonzero"/></clipPath><clipPath id="f8c7147057"><path d="M 28.890625 0.824219 C 13.257812 0.824219 0.589844 13.492188 0.589844 29.125 C 0.589844 44.753906 13.257812 57.425781 28.890625 57.425781 C 44.519531 57.425781 57.191406 44.753906 57.191406 29.125 C 57.191406 13.492188 44.519531 0.824219 28.890625 0.824219 Z M 28.890625 0.824219 " clip-rule="nonzero"/></clipPath><clipPath id="b5b1426bb6"><rect x="0" width="58" y="0" height="58"/></clipPath><clipPath id="13d7527df5"><path d="M 24.589844 24.824219 L 81.183594 24.824219 L 81.183594 81.417969 L 24.589844 81.417969 Z M 24.589844 24.824219 " clip-rule="nonzero"/></clipPath><clipPath id="d622e0bda6"><path d="M 52.886719 24.824219 C 37.257812 24.824219 24.589844 37.492188 24.589844 53.121094 C 24.589844 68.746094 37.257812 81.417969 52.886719 81.417969 C 68.511719 81.417969 81.183594 68.746094 81.183594 53.121094 C 81.183594 37.492188 68.511719 24.824219 52.886719 24.824219 Z M 52.886719 24.824219 " clip-rule="nonzero"/></clipPath><clipPath id="7075642c32"><path d="M 37.5 101.941406 L 68.277344 101.941406 L 68.277344 116.53125 L 37.5 116.53125 Z M 37.5 101.941406 " clip-rule="nonzero"/></clipPath><clipPath id="3d21d23474"><path d="M 0.5 0.941406 L 31.277344 0.941406 L 31.277344 15.53125 L 0.5 15.53125 Z M 0.5 0.941406 " clip-rule="nonzero"/></clipPath><clipPath id="29ad426e7a"><rect x="0" width="32" y="0" height="16"/></clipPath></defs><g clip-path="url(#36afb01761)"><g clip-path="url(#769550047b)"><g transform="matrix(1, 0, 0, 1, 37, 98)"><g clip-path="url(#5f04b0e630)"><g clip-path="url(#c851a66556)"><g clip-path="url(#f7a55138ca)"><path fill="#092043" d="M 0.503906 54.613281 L 0.503906 0.269531 L 31.28125 0.269531 L 31.28125 54.613281 Z M 0.503906 54.613281 " fill-opacity="1" fill-rule="nonzero"/></g></g></g></g></g></g><g clip-path="url(#d7efaeee1f)"><g clip-path="url(#d22953def2)"><path stroke-linecap="butt" transform="matrix(0.746495, 0, 0, 0.746495, 0.000000000000010608, 0.234811)" fill="none" stroke-linejoin="miter" d="M 70.841454 -0.000583506 C 31.715915 -0.000583506 -0.000000000000014211 31.715331 -0.000000000000014211 70.846104 C -0.000000000000014211 109.971643 31.715915 141.687558 70.841454 141.687558 C 109.972227 141.687558 141.688142 109.971643 141.688142 70.846104 C 141.688142 31.715331 109.972227 -0.000583506 70.841454 -0.000583506 Z M 70.841454 -0.000583506 " stroke="#0a2043" stroke-width="36" stroke-opacity="1" stroke-miterlimit="4"/></g></g><g clip-path="url(#3db87d077e)"><g clip-path="url(#d32fb9ec52)"><g transform="matrix(1, 0, 0, 1, 24, 24)"><g clip-path="url(#b5b1426bb6)"><g clip-path="url(#6ed5dfa972)"><g clip-path="url(#f8c7147057)"><path fill="#067dc0" d="M 0.589844 0.824219 L 57.191406 0.824219 L 57.191406 57.425781 L 0.589844 57.425781 Z M 0.589844 0.824219 " fill-opacity="1" fill-rule="nonzero"/></g></g></g></g></g></g><g clip-path="url(#13d7527df5)"><g clip-path="url(#d622e0bda6)"><path stroke-linecap="butt" transform="matrix(0.746495, 0, 0, 0.746495, 24.58813, 24.82294)" fill="none" stroke-linejoin="miter" d="M 37.908596 0.00171235 C 16.97222 0.00171235 0.00229586 16.971637 0.00229586 37.908013 C 0.00229586 58.839156 16.97222 75.814313 37.908596 75.814313 C 58.83974 75.814313 75.814897 58.839156 75.814897 37.908013 C 75.814897 16.971637 58.83974 0.00171235 37.908596 0.00171235 Z M 37.908596 0.00171235 " stroke="#0a2043" stroke-width="36" stroke-opacity="1" stroke-miterlimit="4"/></g></g><g clip-path="url(#7075642c32)"><g transform="matrix(1, 0, 0, 1, 37, 101)"><g clip-path="url(#29ad426e7a)"><g clip-path="url(#3d21d23474)"><path fill="#092043" d="M 0.5 15.53125 L 0.5 0.941406 L 31.277344 0.941406 L 31.277344 15.53125 Z M 0.5 15.53125 " fill-opacity="1" fill-rule="nonzero"/></g></g></g></g></svg>