<svg xmlns="http://www.w3.org/2000/svg" xmlns:xlink="http://www.w3.org/1999/xlink" width="142" zoomAndPan="magnify" viewBox="0 0 106.5 153.749995" height="205" preserveAspectRatio="xMidYMid meet" version="1.0"><defs><clipPath id="9fc24e6e59"><path d="M 37.503906 81.4375 L 68.28125 81.4375 L 68.28125 152.613281 L 37.503906 152.613281 Z M 37.503906 81.4375 " clip-rule="nonzero"/></clipPath><clipPath id="f6681bb298"><path d="M 37.503906 137.226562 L 37.503906 96.929688 C 37.503906 88.429688 44.394531 81.539062 52.890625 81.539062 C 61.390625 81.539062 68.28125 88.429688 68.28125 96.929688 L 68.28125 137.226562 C 68.28125 145.722656 61.390625 152.613281 52.890625 152.613281 C 44.394531 152.613281 37.503906 145.722656 37.503906 137.226562 Z M 37.503906 137.226562 " clip-rule="nonzero"/></clipPath><clipPath id="8266a600b2"><path d="M 0.503906 0.453125 L 31.28125 0.453125 L 31.28125 71.613281 L 0.503906 71.613281 Z M 0.503906 0.453125 " clip-rule="nonzero"/></clipPath><clipPath id="bd690ff80b"><path d="M 0.503906 56.226562 L 0.503906 15.929688 C 0.503906 7.429688 7.394531 0.539062 15.890625 0.539062 C 24.390625 0.539062 31.28125 7.429688 31.28125 15.929688 L 31.28125 56.226562 C 31.28125 64.722656 24.390625 71.613281 15.890625 71.613281 C 7.394531 71.613281 0.503906 64.722656 0.503906 56.226562 Z M 0.503906 56.226562 " clip-rule="nonzero"/></clipPath><clipPath id="0b1798d6d6"><rect x="0" width="32" y="0" height="72"/></clipPath><clipPath id="232f421c64"><path d="M 0 0.234375 L 105.78125 0.234375 L 105.78125 106.015625 L 0 106.015625 Z M 0 0.234375 " clip-rule="nonzero"/></clipPath><clipPath id="c422e9d364"><path d="M 52.890625 0.234375 C 23.679688 0.234375 0 23.914062 0 53.125 C 0 82.335938 23.679688 106.015625 52.890625 106.015625 C 82.101562 106.015625 105.78125 82.335938 105.78125 53.125 C 105.78125 23.914062 82.101562 0.234375 52.890625 0.234375 Z M 52.890625 0.234375 " clip-rule="nonzero"/></clipPath><clipPath id="6f83acd002"><path d="M 0 0.234375 L 105.78125 0.234375 L 105.78125 106.015625 L 0 106.015625 Z M 0 0.234375 " clip-rule="nonzero"/></clipPath><clipPath id="2418d28a1e"><path d="M 52.890625 0.234375 C 23.679688 0.234375 0 23.914062 0 53.125 C 0 82.335938 23.679688 106.015625 52.890625 106.015625 C 82.101562 106.015625 105.78125 82.335938 105.78125 53.125 C 105.78125 23.914062 82.101562 0.234375 52.890625 0.234375 Z M 52.890625 0.234375 " clip-rule="nonzero"/></clipPath><clipPath id="e76f6fd004"><rect x="0" width="106" y="0" height="107"/></clipPath><clipPath id="80e3394cb9"><path d="M 0 0.234375 L 105.769531 0.234375 L 105.769531 106.003906 L 0 106.003906 Z M 0 0.234375 " clip-rule="nonzero"/></clipPath><clipPath id="2332e7dec2"><path d="M 52.882812 0.234375 C 23.675781 0.234375 0 23.910156 0 53.121094 C 0 82.328125 23.675781 106.003906 52.882812 106.003906 C 82.09375 106.003906 105.769531 82.328125 105.769531 53.121094 C 105.769531 23.910156 82.09375 0.234375 52.882812 0.234375 Z M 52.882812 0.234375 " clip-rule="nonzero"/></clipPath><clipPath id="d65ab12184"><path d="M 24.589844 24.824219 L 81.191406 24.824219 L 81.191406 81.425781 L 24.589844 81.425781 Z M 24.589844 24.824219 " clip-rule="nonzero"/></clipPath><clipPath id="6aea690d43"><path d="M 52.890625 24.824219 C 37.257812 24.824219 24.589844 37.492188 24.589844 53.125 C 24.589844 68.753906 37.257812 81.425781 52.890625 81.425781 C 68.519531 81.425781 81.191406 68.753906 81.191406 53.125 C 81.191406 37.492188 68.519531 24.824219 52.890625 24.824219 Z M 52.890625 24.824219 " clip-rule="nonzero"/></clipPath><clipPath id="3f9d90fc48"><path d="M 0.589844 0.824219 L 57.191406 0.824219 L 57.191406 57.425781 L 0.589844 57.425781 Z M 0.589844 0.824219 " clip-rule="nonzero"/></clipPath><clipPath id="6d0ea83d89"><path d="M 28.890625 0.824219 C 13.257812 0.824219 0.589844 13.492188 0.589844 29.125 C 0.589844 44.753906 13.257812 57.425781 28.890625 57.425781 C 44.519531 57.425781 57.191406 44.753906 57.191406 29.125 C 57.191406 13.492188 44.519531 0.824219 28.890625 0.824219 Z M 28.890625 0.824219 " clip-rule="nonzero"/></clipPath><clipPath id="97f17fcb13"><rect x="0" width="58" y="0" height="58"/></clipPath><clipPath id="830ddc2622"><path d="M 24.589844 24.824219 L 81.183594 24.824219 L 81.183594 81.417969 L 24.589844 81.417969 Z M 24.589844 24.824219 " clip-rule="nonzero"/></clipPath><clipPath id="ee7b8b426f"><path d="M 52.886719 24.824219 C 37.257812 24.824219 24.589844 37.492188 24.589844 53.121094 C 24.589844 68.746094 37.257812 81.417969 52.886719 81.417969 C 68.511719 81.417969 81.183594 68.746094 81.183594 53.121094 C 81.183594 37.492188 68.511719 24.824219 52.886719 24.824219 Z M 52.886719 24.824219 " clip-rule="nonzero"/></clipPath><clipPath id="554e6f76db"><path d="M 37.5 101.941406 L 68.277344 101.941406 L 68.277344 116.53125 L 37.5 116.53125 Z M 37.5 101.941406 " clip-rule="nonzero"/></clipPath><clipPath id="cf6a384cfa"><path d="M 0.5 0.941406 L 31.277344 0.941406 L 31.277344 15.53125 L 0.5 15.53125 Z M 0.5 0.941406 " clip-rule="nonzero"/></clipPath><clipPath id="6c5f65efed"><rect x="0" width="32" y="0" height="16"/></clipPath></defs><g clip-path="url(#9fc24e6e59)"><g clip-path="url(#f6681bb298)"><g transform="matrix(1, 0, 0, 1, 37, 81)"><g clip-path="url(#0b1798d6d6)"><g clip-path="url(#8266a600b2)"><g clip-path="url(#bd690ff80b)"><path fill="#092043" d="M 0.503906 71.613281 L 0.503906 0.558594 L 31.28125 0.558594 L 31.28125 71.613281 Z M 0.503906 71.613281 " fill-opacity="1" fill-rule="nonzero"/></g></g></g></g></g></g><g clip-path="url(#232f421c64)"><g clip-path="url(#c422e9d364)"><g transform="matrix(1, 0, 0, 1, 0, -0.000000000000024036)"><g clip-path="url(#e76f6fd004)"><g clip-path="url(#6f83acd002)"><g clip-path="url(#2418d28a1e)"><path fill="#ffffff" d="M 0 0.234375 L 105.78125 0.234375 L 105.78125 106.015625 L 0 106.015625 Z M 0 0.234375 " fill-opacity="1" fill-rule="nonzero"/></g></g></g></g></g></g><g clip-path="url(#80e3394cb9)"><g clip-path="url(#2332e7dec2)"><path stroke-linecap="butt" transform="matrix(0.746495, 0, 0, 0.746495, 0.000000000000007666, 0.234811)" fill="none" stroke-linejoin="miter" d="M 70.841454 -0.000583506 C 31.715915 -0.000583506 -0.00000000000001027 31.715331 -0.00000000000001027 70.846104 C -0.00000000000001027 109.971643 31.715915 141.687558 70.841454 141.687558 C 109.972227 141.687558 141.688142 109.971643 141.688142 70.846104 C 141.688142 31.715331 109.972227 -0.000583506 70.841454 -0.000583506 Z M 70.841454 -0.000583506 " stroke="#0a2043" stroke-width="36" stroke-opacity="1" stroke-miterlimit="4"/></g></g><g clip-path="url(#d65ab12184)"><g clip-path="url(#6aea690d43)"><g transform="matrix(1, 0, 0, 1, 24, 24)"><g clip-path="url(#97f17fcb13)"><g clip-path="url(#3f9d90fc48)"><g clip-path="url(#6d0ea83d89)"><path fill="#f44343" d="M 0.589844 0.824219 L 57.191406 0.824219 L 57.191406 57.425781 L 0.589844 57.425781 Z M 0.589844 0.824219 " fill-opacity="1" fill-rule="nonzero"/></g></g></g></g></g></g><g clip-path="url(#830ddc2622)"><g clip-path="url(#ee7b8b426f)"><path stroke-linecap="butt" transform="matrix(0.746495, 0, 0, 0.746495, 24.58813, 24.82294)" fill="none" stroke-linejoin="miter" d="M 37.908596 0.00171235 C 16.97222 0.00171235 0.00229586 16.971637 0.00229586 37.908013 C 0.00229586 58.839156 16.97222 75.814313 37.908596 75.814313 C 58.83974 75.814313 75.814897 58.839156 75.814897 37.908013 C 75.814897 16.971637 58.83974 0.00171235 37.908596 0.00171235 Z M 37.908596 0.00171235 " stroke="#0a2043" stroke-width="36" stroke-opacity="1" stroke-miterlimit="4"/></g></g><g clip-path="url(#554e6f76db)"><g transform="matrix(1, 0, 0, 1, 37, 101)"><g clip-path="url(#6c5f65efed)"><g clip-path="url(#cf6a384cfa)"><path fill="#092043" d="M 0.5 15.53125 L 0.5 0.941406 L 31.277344 0.941406 L 31.277344 15.53125 Z M 0.5 15.53125 " fill-opacity="1" fill-rule="nonzero"/></g></g></g></g></svg>