<svg xmlns="http://www.w3.org/2000/svg" xmlns:xlink="http://www.w3.org/1999/xlink" width="142" zoomAndPan="magnify" viewBox="0 0 106.5 153.749995" height="205" preserveAspectRatio="xMidYMid meet" version="1.0"><defs><clipPath id="8f699871e0"><path d="M 37.503906 98.152344 L 68.28125 98.152344 L 68.28125 152.613281 L 37.503906 152.613281 Z M 37.503906 98.152344 " clip-rule="nonzero"/></clipPath><clipPath id="6e9fb61efe"><path d="M 37.503906 137.226562 L 37.503906 113.65625 C 37.503906 105.15625 44.394531 98.265625 52.890625 98.265625 C 61.390625 98.265625 68.28125 105.15625 68.28125 113.65625 L 68.28125 137.226562 C 68.28125 145.722656 61.390625 152.613281 52.890625 152.613281 C 44.394531 152.613281 37.503906 145.722656 37.503906 137.226562 Z M 37.503906 137.226562 " clip-rule="nonzero"/></clipPath><clipPath id="5dedeaf54c"><path d="M 0.503906 0.175781 L 31.28125 0.175781 L 31.28125 54.613281 L 0.503906 54.613281 Z M 0.503906 0.175781 " clip-rule="nonzero"/></clipPath><clipPath id="73eaf59e15"><path d="M 0.503906 39.226562 L 0.503906 15.65625 C 0.503906 7.15625 7.394531 0.265625 15.890625 0.265625 C 24.390625 0.265625 31.28125 7.15625 31.28125 15.65625 L 31.28125 39.226562 C 31.28125 47.722656 24.390625 54.613281 15.890625 54.613281 C 7.394531 54.613281 0.503906 47.722656 0.503906 39.226562 Z M 0.503906 39.226562 " clip-rule="nonzero"/></clipPath><clipPath id="f1b5241262"><rect x="0" width="32" y="0" height="55"/></clipPath><clipPath id="2c83c1a414"><path d="M 0 0.234375 L 105.78125 0.234375 L 105.78125 106.015625 L 0 106.015625 Z M 0 0.234375 " clip-rule="nonzero"/></clipPath><clipPath id="6c797dc59d"><path d="M 52.890625 0.234375 C 23.679688 0.234375 0 23.914062 0 53.125 C 0 82.335938 23.679688 106.015625 52.890625 106.015625 C 82.101562 106.015625 105.78125 82.335938 105.78125 53.125 C 105.78125 23.914062 82.101562 0.234375 52.890625 0.234375 Z M 52.890625 0.234375 " clip-rule="nonzero"/></clipPath><clipPath id="be058a3f93"><path d="M 0 0.234375 L 105.78125 0.234375 L 105.78125 106.015625 L 0 106.015625 Z M 0 0.234375 " clip-rule="nonzero"/></clipPath><clipPath id="b00c9fb7ba"><path d="M 52.890625 0.234375 C 23.679688 0.234375 0 23.914062 0 53.125 C 0 82.335938 23.679688 106.015625 52.890625 106.015625 C 82.101562 106.015625 105.78125 82.335938 105.78125 53.125 C 105.78125 23.914062 82.101562 0.234375 52.890625 0.234375 Z M 52.890625 0.234375 " clip-rule="nonzero"/></clipPath><clipPath id="e0190e2c95"><rect x="0" width="106" y="0" height="107"/></clipPath><clipPath id="ed0485471d"><path d="M 0 0.234375 L 105.769531 0.234375 L 105.769531 106.003906 L 0 106.003906 Z M 0 0.234375 " clip-rule="nonzero"/></clipPath><clipPath id="11769ca729"><path d="M 52.882812 0.234375 C 23.675781 0.234375 0 23.910156 0 53.121094 C 0 82.328125 23.675781 106.003906 52.882812 106.003906 C 82.09375 106.003906 105.769531 82.328125 105.769531 53.121094 C 105.769531 23.910156 82.09375 0.234375 52.882812 0.234375 Z M 52.882812 0.234375 " clip-rule="nonzero"/></clipPath><clipPath id="c04691e626"><path d="M 24.589844 24.824219 L 81.191406 24.824219 L 81.191406 81.425781 L 24.589844 81.425781 Z M 24.589844 24.824219 " clip-rule="nonzero"/></clipPath><clipPath id="ba0602c123"><path d="M 52.890625 24.824219 C 37.257812 24.824219 24.589844 37.492188 24.589844 53.125 C 24.589844 68.753906 37.257812 81.425781 52.890625 81.425781 C 68.519531 81.425781 81.191406 68.753906 81.191406 53.125 C 81.191406 37.492188 68.519531 24.824219 52.890625 24.824219 Z M 52.890625 24.824219 " clip-rule="nonzero"/></clipPath><clipPath id="60c30b3360"><path d="M 0.589844 0.824219 L 57.191406 0.824219 L 57.191406 57.425781 L 0.589844 57.425781 Z M 0.589844 0.824219 " clip-rule="nonzero"/></clipPath><clipPath id="e53f5704d9"><path d="M 28.890625 0.824219 C 13.257812 0.824219 0.589844 13.492188 0.589844 29.125 C 0.589844 44.753906 13.257812 57.425781 28.890625 57.425781 C 44.519531 57.425781 57.191406 44.753906 57.191406 29.125 C 57.191406 13.492188 44.519531 0.824219 28.890625 0.824219 Z M 28.890625 0.824219 " clip-rule="nonzero"/></clipPath><clipPath id="f6145ad58c"><rect x="0" width="58" y="0" height="58"/></clipPath><clipPath id="3b5f2a2b33"><path d="M 24.589844 24.824219 L 81.183594 24.824219 L 81.183594 81.417969 L 24.589844 81.417969 Z M 24.589844 24.824219 " clip-rule="nonzero"/></clipPath><clipPath id="5764335b02"><path d="M 52.886719 24.824219 C 37.257812 24.824219 24.589844 37.492188 24.589844 53.121094 C 24.589844 68.746094 37.257812 81.417969 52.886719 81.417969 C 68.511719 81.417969 81.183594 68.746094 81.183594 53.121094 C 81.183594 37.492188 68.511719 24.824219 52.886719 24.824219 Z M 52.886719 24.824219 " clip-rule="nonzero"/></clipPath><clipPath id="2e8f9e6899"><path d="M 37.5 101.941406 L 68.277344 101.941406 L 68.277344 116.53125 L 37.5 116.53125 Z M 37.5 101.941406 " clip-rule="nonzero"/></clipPath><clipPath id="f18c206719"><path d="M 0.5 0.941406 L 31.277344 0.941406 L 31.277344 15.53125 L 0.5 15.53125 Z M 0.5 0.941406 " clip-rule="nonzero"/></clipPath><clipPath id="b560b923ab"><rect x="0" width="32" y="0" height="16"/></clipPath></defs><g clip-path="url(#8f699871e0)"><g clip-path="url(#6e9fb61efe)"><g transform="matrix(1, 0, 0, 1, 37, 98)"><g clip-path="url(#f1b5241262)"><g clip-path="url(#5dedeaf54c)"><g clip-path="url(#73eaf59e15)"><path fill="#092043" d="M 0.503906 54.613281 L 0.503906 0.269531 L 31.28125 0.269531 L 31.28125 54.613281 Z M 0.503906 54.613281 " fill-opacity="1" fill-rule="nonzero"/></g></g></g></g></g></g><g clip-path="url(#2c83c1a414)"><g clip-path="url(#6c797dc59d)"><g transform="matrix(1, 0, 0, 1, 0, -0.000000000000024036)"><g clip-path="url(#e0190e2c95)"><g clip-path="url(#be058a3f93)"><g clip-path="url(#b00c9fb7ba)"><path fill="#ffffff" d="M 0 0.234375 L 105.78125 0.234375 L 105.78125 106.015625 L 0 106.015625 Z M 0 0.234375 " fill-opacity="1" fill-rule="nonzero"/></g></g></g></g></g></g><g clip-path="url(#ed0485471d)"><g clip-path="url(#11769ca729)"><path stroke-linecap="butt" transform="matrix(0.746495, 0, 0, 0.746495, 0.000000000000010608, 0.234811)" fill="none" stroke-linejoin="miter" d="M 70.841454 -0.000583506 C 31.715915 -0.000583506 -0.000000000000014211 31.715331 -0.000000000000014211 70.846104 C -0.000000000000014211 109.971643 31.715915 141.687558 70.841454 141.687558 C 109.972227 141.687558 141.688142 109.971643 141.688142 70.846104 C 141.688142 31.715331 109.972227 -0.000583506 70.841454 -0.000583506 Z M 70.841454 -0.000583506 " stroke="#0a2043" stroke-width="36" stroke-opacity="1" stroke-miterlimit="4"/></g></g><g clip-path="url(#c04691e626)"><g clip-path="url(#ba0602c123)"><g transform="matrix(1, 0, 0, 1, 24, 24)"><g clip-path="url(#f6145ad58c)"><g clip-path="url(#60c30b3360)"><g clip-path="url(#e53f5704d9)"><path fill="#fee917" d="M 0.589844 0.824219 L 57.191406 0.824219 L 57.191406 57.425781 L 0.589844 57.425781 Z M 0.589844 0.824219 " fill-opacity="1" fill-rule="nonzero"/></g></g></g></g></g></g><g clip-path="url(#3b5f2a2b33)"><g clip-path="url(#5764335b02)"><path stroke-linecap="butt" transform="matrix(0.746495, 0, 0, 0.746495, 24.58813, 24.82294)" fill="none" stroke-linejoin="miter" d="M 37.908596 0.00171235 C 16.97222 0.00171235 0.00229586 16.971637 0.00229586 37.908013 C 0.00229586 58.839156 16.97222 75.814313 37.908596 75.814313 C 58.83974 75.814313 75.814897 58.839156 75.814897 37.908013 C 75.814897 16.971637 58.83974 0.00171235 37.908596 0.00171235 Z M 37.908596 0.00171235 " stroke="#0a2043" stroke-width="36" stroke-opacity="1" stroke-miterlimit="4"/></g></g><g clip-path="url(#2e8f9e6899)"><g transform="matrix(1, 0, 0, 1, 37, 101)"><g clip-path="url(#b560b923ab)"><g clip-path="url(#f18c206719)"><path fill="#092043" d="M 0.5 15.53125 L 0.5 0.941406 L 31.277344 0.941406 L 31.277344 15.53125 Z M 0.5 15.53125 " fill-opacity="1" fill-rule="nonzero"/></g></g></g></g></svg>